<svg width="240" height="54" viewBox="0 0 240 54" fill="none" xmlns="http://www.w3.org/2000/svg">
<g filter="url(#filter0_ddiii_40_330)">
<g clip-path="url(#clip0_40_330)">
<rect x="3" width="48" height="48" rx="12" fill="#FF4242"/>
<rect width="48" height="48" transform="translate(3)" fill="url(#paint0_linear_40_330)"/>
<path d="M15.873 19.3824L39.0521 6L38.438 15.5245L18.6975 26.9217L15.873 19.3824Z" fill="url(#paint1_linear_40_330)"/>
<path opacity="0.5" d="M18.6973 26.9214L34.999 17.5095L34.3849 27.034L21.5217 34.4606L18.6973 26.9214Z" fill="#FFCACA"/>
<path opacity="0.25" d="M21.5195 34.4608L30.944 29.0195L30.3298 38.544L24.344 42L21.5195 34.4608Z" fill="#FFCACA"/>
</g>
</g>
<path d="M232.763 33.502C227.759 33.502 225.298 31.916 225.216 28.6211L229.044 28.1836C229.017 30.1934 230.316 31.123 232.75 31.123C234.814 31.123 235.921 30.6309 235.921 29.5781C235.921 28.375 234.664 27.9648 232.421 27.4043L230.166 26.8438C227.91 26.2832 225.585 25.2852 225.585 22.8379C225.585 20.1172 227.841 18.5449 232.353 18.5449C237.083 18.5449 239.435 20.1035 239.449 23.043L235.703 23.4668C235.771 21.5938 234.595 20.9102 232.353 20.9102C230.412 20.9102 229.386 21.375 229.386 22.373C229.386 23.3301 230.439 23.8086 232.708 24.3281L234.951 24.8613C237.22 25.3945 239.873 26.2559 239.873 29.1816C239.873 31.957 237.521 33.502 232.763 33.502Z" fill="#161616"/>
<path d="M217.777 33.502C212.773 33.502 210.312 31.916 210.23 28.6211L214.059 28.1836C214.031 30.1934 215.33 31.123 217.764 31.123C219.828 31.123 220.936 30.6309 220.936 29.5781C220.936 28.375 219.678 27.9648 217.436 27.4043L215.18 26.8438C212.924 26.2832 210.6 25.2852 210.6 22.8379C210.6 20.1172 212.855 18.5449 217.367 18.5449C222.098 18.5449 224.449 20.1035 224.463 23.043L220.717 23.4668C220.785 21.5938 219.609 20.9102 217.367 20.9102C215.426 20.9102 214.4 21.375 214.4 22.373C214.4 23.3301 215.453 23.8086 217.723 24.3281L219.965 24.8613C222.234 25.3945 224.887 26.2559 224.887 29.1816C224.887 31.957 222.535 33.502 217.777 33.502Z" fill="#161616"/>
<path d="M205.745 28.252L209.696 28.6621C209.067 31.9023 206.415 33.543 201.944 33.543C196.858 33.543 194.001 31.0957 194.001 26.4336V25.6406C194.001 21.0879 196.858 18.5312 201.999 18.5312C206.894 18.5312 209.642 20.9785 209.642 25.2988C209.642 25.8867 209.601 26.4199 209.532 27.0898H198.034C198.13 29.7969 199.606 31.0684 202.026 31.0684C204.091 31.0684 205.376 30.248 205.745 28.252ZM202.013 21.0059C199.661 21.0059 198.28 22.25 198.062 24.6289H205.622V24.4102C205.622 22.209 204.351 21.0059 202.013 21.0059Z" fill="#161616"/>
<path d="M188.066 33.2148H184.088V18.8594H188.08C188.107 19.8438 187.957 20.6094 187.314 22.5234L187.574 22.6465C189.051 19.666 190.541 18.6543 193.754 18.4082L194.219 21.7168L192.264 21.8672C189.229 22.0859 188.066 23.4941 188.066 27.2402V33.2148Z" fill="#161616"/>
<path d="M176.622 18.5996C180.724 18.5996 182.884 21.1016 182.884 25.873V26.2148C182.884 31 180.724 33.502 176.622 33.502C173.655 33.502 171.714 32.0801 170.743 29.6191L170.47 29.7285C170.962 31.3828 171.167 32.5996 171.167 34.1035V38H167.188V18.8594H171.208C171.194 19.6523 170.948 20.8418 170.483 22.3457L170.771 22.4414C171.741 19.9668 173.669 18.5996 176.622 18.5996ZM175.118 21.0605C172.562 21.0605 171.167 22.7148 171.167 25.8047V26.2969C171.167 29.4004 172.562 31.0684 175.118 31.0684C177.579 31.0684 178.878 29.4824 178.878 26.3652V25.7363C178.878 22.6328 177.579 21.0605 175.118 21.0605Z" fill="#161616"/>
<path d="M155.416 33.2148H151.054L156.496 26.0098L151.328 18.8594H155.771L158.218 22.3047C158.437 22.6602 158.669 23.084 158.875 23.5215H159.08C159.285 23.084 159.517 22.6602 159.736 22.3047L162.251 18.8594H166.544L161.322 25.7637L166.818 33.2148H162.292L159.64 29.5508C159.38 29.1543 159.148 28.7168 158.97 28.334H158.765C158.587 28.7168 158.355 29.1406 158.082 29.5508L155.416 33.2148Z" fill="#161616"/>
<path d="M151.313 33.2148H137.122V14.0742H151.04V16.9043H141.155V21.9219H150.411V24.4922H141.155V30.3848H151.313V33.2148Z" fill="#161616"/>
<path d="M125.882 33.4746C121.781 33.4746 119.621 30.9727 119.621 26.2012V25.8594C119.621 21.0742 121.781 18.5723 125.882 18.5723C128.849 18.5723 130.791 19.9941 131.761 22.4551L132.035 22.3457C131.542 20.6914 131.337 19.4746 131.337 17.9707V14.0742H135.316V33.2148H131.296C131.31 32.4219 131.556 31.2324 132.021 29.7285L131.734 29.6328C130.763 32.1074 128.835 33.4746 125.882 33.4746ZM127.386 31.0137C129.957 31.0137 131.337 29.3594 131.337 26.2695V25.7773C131.337 22.6738 129.957 21.0059 127.386 21.0059C124.925 21.0059 123.64 22.5918 123.64 25.709V26.3379C123.64 29.4414 124.925 31.0137 127.386 31.0137Z" fill="#161616"/>
<path d="M107.67 33.2148H103.692V18.8594H107.684C107.684 19.9258 107.493 20.8965 106.946 22.5234L107.219 22.6465C108.45 19.9121 110.459 18.5996 113.44 18.5996C116.721 18.5996 118.485 20.1855 118.485 23.1934V33.2148H114.506V24.1504C114.506 22.291 113.577 21.3066 111.704 21.3066C109.188 21.3066 107.67 23.3164 107.67 26.543V33.2148Z" fill="#161616"/>
<path d="M98.5225 28.252L102.474 28.6621C101.845 31.9023 99.1924 33.543 94.7217 33.543C89.6357 33.543 86.7783 31.0957 86.7783 26.4336V25.6406C86.7783 21.0879 89.6357 18.5312 94.7764 18.5312C99.6709 18.5312 102.419 20.9785 102.419 25.2988C102.419 25.8867 102.378 26.4199 102.31 27.0898H90.8115C90.9072 29.7969 92.3838 31.0684 94.8037 31.0684C96.8682 31.0684 98.1533 30.248 98.5225 28.252ZM94.79 21.0059C92.4385 21.0059 91.0576 22.25 90.8389 24.6289H98.3994V24.4102C98.3994 22.209 97.1279 21.0059 94.79 21.0059Z" fill="#161616"/>
<path d="M80.8438 33.2148H76.8652V18.8594H80.8574C80.8848 19.8438 80.7344 20.6094 80.0918 22.5234L80.3516 22.6465C81.8281 19.666 83.3184 18.6543 86.5313 18.4082L86.9961 21.7168L85.041 21.8672C82.0059 22.0859 80.8438 23.4941 80.8438 27.2402V33.2148Z" fill="#161616"/>
<path d="M71.2041 33.2148H67.1572V17.0957H61.1279V14.0742H77.2334V17.0957H71.2041V33.2148Z" fill="#161616"/>
<defs>
<filter id="filter0_ddiii_40_330" x="0" y="-3" width="54" height="57" filterUnits="userSpaceOnUse" color-interpolation-filters="sRGB">
<feFlood flood-opacity="0" result="BackgroundImageFix"/>
<feColorMatrix in="SourceAlpha" type="matrix" values="0 0 0 0 0 0 0 0 0 0 0 0 0 0 0 0 0 0 127 0" result="hardAlpha"/>
<feOffset dy="1"/>
<feGaussianBlur stdDeviation="0.5"/>
<feComposite in2="hardAlpha" operator="out"/>
<feColorMatrix type="matrix" values="0 0 0 0 0.162923 0 0 0 0 0.162923 0 0 0 0 0.162923 0 0 0 0.08 0"/>
<feBlend mode="normal" in2="BackgroundImageFix" result="effect1_dropShadow_40_330"/>
<feColorMatrix in="SourceAlpha" type="matrix" values="0 0 0 0 0 0 0 0 0 0 0 0 0 0 0 0 0 0 127 0" result="hardAlpha"/>
<feMorphology radius="1" operator="erode" in="SourceAlpha" result="effect2_dropShadow_40_330"/>
<feOffset dy="3"/>
<feGaussianBlur stdDeviation="2"/>
<feComposite in2="hardAlpha" operator="out"/>
<feColorMatrix type="matrix" values="0 0 0 0 0.164706 0 0 0 0 0.164706 0 0 0 0 0.164706 0 0 0 0.14 0"/>
<feBlend mode="normal" in2="effect1_dropShadow_40_330" result="effect2_dropShadow_40_330"/>
<feBlend mode="normal" in="SourceGraphic" in2="effect2_dropShadow_40_330" result="shape"/>
<feColorMatrix in="SourceAlpha" type="matrix" values="0 0 0 0 0 0 0 0 0 0 0 0 0 0 0 0 0 0 127 0" result="hardAlpha"/>
<feOffset dy="-3"/>
<feGaussianBlur stdDeviation="1.5"/>
<feComposite in2="hardAlpha" operator="arithmetic" k2="-1" k3="1"/>
<feColorMatrix type="matrix" values="0 0 0 0 0 0 0 0 0 0 0 0 0 0 0 0 0 0 0.1 0"/>
<feBlend mode="normal" in2="shape" result="effect3_innerShadow_40_330"/>
<feColorMatrix in="SourceAlpha" type="matrix" values="0 0 0 0 0 0 0 0 0 0 0 0 0 0 0 0 0 0 127 0" result="hardAlpha"/>
<feOffset dy="3"/>
<feGaussianBlur stdDeviation="1.5"/>
<feComposite in2="hardAlpha" operator="arithmetic" k2="-1" k3="1"/>
<feColorMatrix type="matrix" values="0 0 0 0 1 0 0 0 0 1 0 0 0 0 1 0 0 0 0.1 0"/>
<feBlend mode="normal" in2="effect3_innerShadow_40_330" result="effect4_innerShadow_40_330"/>
<feColorMatrix in="SourceAlpha" type="matrix" values="0 0 0 0 0 0 0 0 0 0 0 0 0 0 0 0 0 0 127 0" result="hardAlpha"/>
<feMorphology radius="1" operator="erode" in="SourceAlpha" result="effect5_innerShadow_40_330"/>
<feOffset/>
<feComposite in2="hardAlpha" operator="arithmetic" k2="-1" k3="1"/>
<feColorMatrix type="matrix" values="0 0 0 0 0.0627451 0 0 0 0 0.0941176 0 0 0 0 0.156863 0 0 0 0.24 0"/>
<feBlend mode="normal" in2="effect4_innerShadow_40_330" result="effect5_innerShadow_40_330"/>
</filter>
<linearGradient id="paint0_linear_40_330" x1="24" y1="5.96047e-07" x2="26" y2="48" gradientUnits="userSpaceOnUse">
<stop stop-color="white" stop-opacity="0"/>
<stop offset="1" stop-color="white" stop-opacity="0.12"/>
</linearGradient>
<linearGradient id="paint1_linear_40_330" x1="27.4626" y1="6" x2="27.4626" y2="26.9217" gradientUnits="userSpaceOnUse">
<stop stop-color="white" stop-opacity="0.8"/>
<stop offset="1" stop-color="white" stop-opacity="0.5"/>
</linearGradient>
<clipPath id="clip0_40_330">
<rect x="3" width="48" height="48" rx="12" fill="white"/>
</clipPath>
</defs>
</svg>
