<svg width="240" height="55" viewBox="0 0 240 55" fill="none" xmlns="http://www.w3.org/2000/svg">
<g filter="url(#filter0_ddiii_24_420)">
<g clip-path="url(#clip0_24_420)">
<rect x="3" y="0.0673828" width="48" height="48" rx="12" fill="#FF4242"/>
<rect width="48" height="48" transform="translate(3 0.0673828)" fill="url(#paint0_linear_24_420)"/>
<path d="M15.873 19.4498L39.0521 6.06738L38.438 15.5919L18.6975 26.989L15.873 19.4498Z" fill="url(#paint1_linear_24_420)"/>
<path opacity="0.5" d="M18.6973 26.9887L34.999 17.5769L34.3849 27.1014L21.5217 34.5279L18.6973 26.9887Z" fill="#FFCACA"/>
<path opacity="0.25" d="M21.5195 34.5281L30.944 29.0869L30.3298 38.6114L24.344 42.0673L21.5195 34.5281Z" fill="#FFCACA"/>
</g>
</g>
<path d="M70.2812 36.0674H66.2344V19.9482H60.2051V16.9268H76.3105V19.9482H70.2812V36.0674ZM79.921 36.0674H75.9425V21.7119H79.9347C79.962 22.6963 79.8116 23.4619 79.1691 25.376L79.4288 25.499C80.9054 22.5186 82.3956 21.5068 85.6085 21.2607L86.0734 24.5693L84.1183 24.7197C81.0831 24.9385 79.921 26.3467 79.921 30.0928V36.0674ZM97.5998 31.1045L101.551 31.5146C100.922 34.7549 98.2698 36.3955 93.7991 36.3955C88.7131 36.3955 85.8557 33.9482 85.8557 29.2861V28.4932C85.8557 23.9404 88.7131 21.3838 93.8538 21.3838C98.7483 21.3838 101.496 23.8311 101.496 28.1514C101.496 28.7393 101.455 29.2725 101.387 29.9424H89.8889C89.9846 32.6494 91.4612 33.9209 93.8811 33.9209C95.9455 33.9209 97.2307 33.1006 97.5998 31.1045ZM93.8674 23.8584C91.5159 23.8584 90.135 25.1025 89.9163 27.4814H97.4768V27.2627C97.4768 25.0615 96.2053 23.8584 93.8674 23.8584ZM106.747 36.0674H102.769V21.7119H106.761C106.761 22.7783 106.57 23.749 106.023 25.376L106.296 25.499C107.527 22.7646 109.536 21.4521 112.517 21.4521C115.798 21.4521 117.562 23.0381 117.562 26.0459V36.0674H113.583V27.0029C113.583 25.1436 112.654 24.1592 110.781 24.1592C108.265 24.1592 106.747 26.1689 106.747 29.3955V36.0674ZM124.959 36.3271C120.858 36.3271 118.698 33.8252 118.698 29.0537V28.7119C118.698 23.9268 120.858 21.4248 124.959 21.4248C127.926 21.4248 129.868 22.8467 130.838 25.3076L131.112 25.1982C130.62 23.5439 130.415 22.3271 130.415 20.8232V16.9268H134.393V36.0674H130.374C130.387 35.2744 130.633 34.085 131.098 32.5811L130.811 32.4854C129.84 34.96 127.913 36.3271 124.959 36.3271ZM126.463 33.8662C129.034 33.8662 130.415 32.2119 130.415 29.1221V28.6299C130.415 25.5264 129.034 23.8584 126.463 23.8584C124.002 23.8584 122.717 25.4443 122.717 28.5615V29.1904C122.717 32.2939 124.002 33.8662 126.463 33.8662ZM150.39 36.0674H136.199V16.9268H150.117V19.7568H140.232V24.7744H149.488V27.3447H140.232V33.2373H150.39V36.0674ZM154.493 36.0674H150.132L155.573 28.8623L150.405 21.7119H154.848L157.296 25.1572C157.514 25.5127 157.747 25.9365 157.952 26.374H158.157C158.362 25.9365 158.594 25.5127 158.813 25.1572L161.329 21.7119H165.622L160.399 28.6162L165.895 36.0674H161.37L158.717 32.4033C158.458 32.0068 158.225 31.5693 158.048 31.1865H157.842C157.665 31.5693 157.432 31.9932 157.159 32.4033L154.493 36.0674ZM175.699 21.4521C179.801 21.4521 181.961 23.9541 181.961 28.7256V29.0674C181.961 33.8525 179.801 36.3545 175.699 36.3545C172.732 36.3545 170.791 34.9326 169.82 32.4717L169.547 32.5811C170.039 34.2354 170.244 35.4521 170.244 36.9561V40.8525H166.265V21.7119H170.285C170.271 22.5049 170.025 23.6943 169.56 25.1982L169.848 25.2939C170.818 22.8193 172.746 21.4521 175.699 21.4521ZM174.195 23.9131C171.639 23.9131 170.244 25.5674 170.244 28.6572V29.1494C170.244 32.2529 171.639 33.9209 174.195 33.9209C176.656 33.9209 177.955 32.335 177.955 29.2178V28.5889C177.955 25.4854 176.656 23.9131 174.195 23.9131ZM187.144 36.0674H183.165V21.7119H187.157C187.185 22.6963 187.034 23.4619 186.392 25.376L186.651 25.499C188.128 22.5186 189.618 21.5068 192.831 21.2607L193.296 24.5693L191.341 24.7197C188.306 24.9385 187.144 26.3467 187.144 30.0928V36.0674ZM204.822 31.1045L208.774 31.5146C208.145 34.7549 205.492 36.3955 201.022 36.3955C195.936 36.3955 193.078 33.9482 193.078 29.2861V28.4932C193.078 23.9404 195.936 21.3838 201.076 21.3838C205.971 21.3838 208.719 23.8311 208.719 28.1514C208.719 28.7393 208.678 29.2725 208.609 29.9424H197.111C197.207 32.6494 198.684 33.9209 201.104 33.9209C203.168 33.9209 204.453 33.1006 204.822 31.1045ZM201.09 23.8584C198.738 23.8584 197.357 25.1025 197.139 27.4814H204.699V27.2627C204.699 25.0615 203.428 23.8584 201.09 23.8584ZM216.855 36.3545C211.851 36.3545 209.39 34.7686 209.308 31.4736L213.136 31.0361C213.109 33.0459 214.407 33.9756 216.841 33.9756C218.905 33.9756 220.013 33.4834 220.013 32.4307C220.013 31.2275 218.755 30.8174 216.513 30.2568L214.257 29.6963C212.001 29.1357 209.677 28.1377 209.677 25.6904C209.677 22.9697 211.933 21.3975 216.445 21.3975C221.175 21.3975 223.527 22.9561 223.54 25.8955L219.794 26.3193C219.863 24.4463 218.687 23.7627 216.445 23.7627C214.503 23.7627 213.478 24.2275 213.478 25.2256C213.478 26.1826 214.53 26.6611 216.8 27.1807L219.042 27.7139C221.312 28.2471 223.964 29.1084 223.964 32.0342C223.964 34.8096 221.613 36.3545 216.855 36.3545ZM231.84 36.3545C226.836 36.3545 224.375 34.7686 224.293 31.4736L228.121 31.0361C228.094 33.0459 229.393 33.9756 231.826 33.9756C233.891 33.9756 234.998 33.4834 234.998 32.4307C234.998 31.2275 233.741 30.8174 231.498 30.2568L229.242 29.6963C226.987 29.1357 224.662 28.1377 224.662 25.6904C224.662 22.9697 226.918 21.3975 231.43 21.3975C236.16 21.3975 238.512 22.9561 238.526 25.8955L234.78 26.3193C234.848 24.4463 233.672 23.7627 231.43 23.7627C229.489 23.7627 228.463 24.2275 228.463 25.2256C228.463 26.1826 229.516 26.6611 231.785 27.1807L234.028 27.7139C236.297 28.2471 238.95 29.1084 238.95 32.0342C238.95 34.8096 236.598 36.3545 231.84 36.3545Z" fill="white"/>
<defs>
<filter id="filter0_ddiii_24_420" x="0" y="-2.93262" width="54" height="57" filterUnits="userSpaceOnUse" color-interpolation-filters="sRGB">
<feFlood flood-opacity="0" result="BackgroundImageFix"/>
<feColorMatrix in="SourceAlpha" type="matrix" values="0 0 0 0 0 0 0 0 0 0 0 0 0 0 0 0 0 0 127 0" result="hardAlpha"/>
<feOffset dy="1"/>
<feGaussianBlur stdDeviation="0.5"/>
<feComposite in2="hardAlpha" operator="out"/>
<feColorMatrix type="matrix" values="0 0 0 0 0.162923 0 0 0 0 0.162923 0 0 0 0 0.162923 0 0 0 0.08 0"/>
<feBlend mode="normal" in2="BackgroundImageFix" result="effect1_dropShadow_24_420"/>
<feColorMatrix in="SourceAlpha" type="matrix" values="0 0 0 0 0 0 0 0 0 0 0 0 0 0 0 0 0 0 127 0" result="hardAlpha"/>
<feMorphology radius="1" operator="erode" in="SourceAlpha" result="effect2_dropShadow_24_420"/>
<feOffset dy="3"/>
<feGaussianBlur stdDeviation="2"/>
<feComposite in2="hardAlpha" operator="out"/>
<feColorMatrix type="matrix" values="0 0 0 0 0.164706 0 0 0 0 0.164706 0 0 0 0 0.164706 0 0 0 0.14 0"/>
<feBlend mode="normal" in2="effect1_dropShadow_24_420" result="effect2_dropShadow_24_420"/>
<feBlend mode="normal" in="SourceGraphic" in2="effect2_dropShadow_24_420" result="shape"/>
<feColorMatrix in="SourceAlpha" type="matrix" values="0 0 0 0 0 0 0 0 0 0 0 0 0 0 0 0 0 0 127 0" result="hardAlpha"/>
<feOffset dy="-3"/>
<feGaussianBlur stdDeviation="1.5"/>
<feComposite in2="hardAlpha" operator="arithmetic" k2="-1" k3="1"/>
<feColorMatrix type="matrix" values="0 0 0 0 0 0 0 0 0 0 0 0 0 0 0 0 0 0 0.1 0"/>
<feBlend mode="normal" in2="shape" result="effect3_innerShadow_24_420"/>
<feColorMatrix in="SourceAlpha" type="matrix" values="0 0 0 0 0 0 0 0 0 0 0 0 0 0 0 0 0 0 127 0" result="hardAlpha"/>
<feOffset dy="3"/>
<feGaussianBlur stdDeviation="1.5"/>
<feComposite in2="hardAlpha" operator="arithmetic" k2="-1" k3="1"/>
<feColorMatrix type="matrix" values="0 0 0 0 1 0 0 0 0 1 0 0 0 0 1 0 0 0 0.1 0"/>
<feBlend mode="normal" in2="effect3_innerShadow_24_420" result="effect4_innerShadow_24_420"/>
<feColorMatrix in="SourceAlpha" type="matrix" values="0 0 0 0 0 0 0 0 0 0 0 0 0 0 0 0 0 0 127 0" result="hardAlpha"/>
<feMorphology radius="1" operator="erode" in="SourceAlpha" result="effect5_innerShadow_24_420"/>
<feOffset/>
<feComposite in2="hardAlpha" operator="arithmetic" k2="-1" k3="1"/>
<feColorMatrix type="matrix" values="0 0 0 0 0.0627451 0 0 0 0 0.0941176 0 0 0 0 0.156863 0 0 0 0.24 0"/>
<feBlend mode="normal" in2="effect4_innerShadow_24_420" result="effect5_innerShadow_24_420"/>
</filter>
<linearGradient id="paint0_linear_24_420" x1="24" y1="5.96047e-07" x2="26" y2="48" gradientUnits="userSpaceOnUse">
<stop stop-color="white" stop-opacity="0"/>
<stop offset="1" stop-color="white" stop-opacity="0.12"/>
</linearGradient>
<linearGradient id="paint1_linear_24_420" x1="27.4626" y1="6.06738" x2="27.4626" y2="26.989" gradientUnits="userSpaceOnUse">
<stop stop-color="white" stop-opacity="0.8"/>
<stop offset="1" stop-color="white" stop-opacity="0.5"/>
</linearGradient>
<clipPath id="clip0_24_420">
<rect x="3" y="0.0673828" width="48" height="48" rx="12" fill="white"/>
</clipPath>
</defs>
</svg>
